<svg viewBox="0 0 500 500" xmlns="http://www.w3.org/2000/svg" xmlns:xlink="http://www.w3.org/1999/xlink" width="100%" id="blobSvg">
  <path id="blob" d="M429.5,276Q409,302,430.5,349.5Q452,397,421.5,420.5Q391,444,357,458.5Q323,473,286.5,439Q250,405,218.5,425Q187,445,162,425.5Q137,406,93.5,400.5Q50,395,68.5,349Q87,303,67.5,276.5Q48,250,59,221Q70,192,83,165Q96,138,101,95Q106,52,149,61.5Q192,71,221,81Q250,91,274.5,95Q299,99,348,73.5Q397,48,398.5,94.5Q400,141,442,157.5Q484,174,467,212Q450,250,429.5,276Z" fill="#d1d8e0"></path>
</svg>