<svg viewbox="0 0 1440 320" width="100%" height="100%" preserveAspectRatio="xMinYMin" xmlns="http://www.w3.org/2000/svg">
  <path fill="#f0ecdd" d="M40.9,-65.4C53.6,-63.4,65.1,-53.8,60.5,-41.6C55.9,-29.5,35.3,-14.7,30.6,-2.7C25.9,9.3,37.2,18.6,37.9,24.1C38.5,29.5,28.7,31.1,20.6,29.2C12.6,27.3,6.3,22,-1.7,25C-9.8,28.1,-19.5,39.4,-24.4,39.5C-29.3,39.5,-29.4,28.2,-40.7,19.8C-52,11.3,-74.5,5.7,-81.5,-4C-88.4,-13.7,-79.8,-27.4,-71.2,-40.5C-62.6,-53.6,-54,-66.2,-42.2,-68.7C-30.3,-71.2,-15.2,-63.5,-0.6,-62.6C14.1,-61.6,28.1,-67.3,40.9,-65.4Z" transform="translate(100 100)" />
</svg>
